<mxfile host="65bd71144e">
    <diagram id="wFE0QG_FPsp0jaGvCLVb" name="各种Runner">
        <mxGraphModel dx="1077" dy="391" grid="1" gridSize="10" guides="1" tooltips="1" connect="1" arrows="1" fold="1" page="1" pageScale="1" pageWidth="850" pageHeight="1100" math="0" shadow="0">
            <root>
                <mxCell id="0"/>
                <mxCell id="1" parent="0"/>
                <mxCell id="_5mSTuPxr-ZiKRkBDSY7-1" value="" style="swimlane;fontStyle=2;childLayout=stackLayout;horizontal=1;startSize=28;horizontalStack=1;resizeParent=1;resizeParentMax=0;resizeLast=0;collapsible=0;marginBottom=0;swimlaneFillColor=none;fontFamily=Permanent Marker;fontSize=16;points=[];verticalAlign=top;stackBorder=0;resizable=1;strokeWidth=2;sketch=1;disableMultiStroke=1;" parent="1" vertex="1">
                    <mxGeometry x="160" y="80" width="540" height="700" as="geometry"/>
                </mxCell>
                <object label="企业" status="New" id="_5mSTuPxr-ZiKRkBDSY7-2">
                    <mxCell style="swimlane;strokeWidth=2;fontFamily=Permanent Marker;html=0;startSize=1;verticalAlign=bottom;spacingBottom=5;points=[];childLayout=stackLayout;stackBorder=20;stackSpacing=20;resizeLast=0;resizeParent=1;horizontalStack=0;collapsible=0;sketch=1;strokeColor=none;fillStyle=solid;fillColor=#A0522D;" parent="_5mSTuPxr-ZiKRkBDSY7-1" vertex="1">
                        <mxGeometry y="28" width="180" height="672" as="geometry"/>
                    </mxCell>
                </object>
                <object label="可以被组织Repo使用" placeholders="1" id="_5mSTuPxr-ZiKRkBDSY7-3">
                    <mxCell style="whiteSpace=wrap;html=1;strokeWidth=2;fillColor=swimlane;fontStyle=1;spacingTop=0;rounded=1;arcSize=9;points=[];sketch=1;fontFamily=Permanent Marker;hachureGap=8;fillWeight=1;" parent="_5mSTuPxr-ZiKRkBDSY7-2" vertex="1">
                        <mxGeometry x="20" y="21" width="140" height="80" as="geometry"/>
                    </mxCell>
                </object>
                <object label="可以设定所有组织或特定组织" placeholders="1" id="_5mSTuPxr-ZiKRkBDSY7-4">
                    <mxCell style="whiteSpace=wrap;html=1;strokeWidth=2;fillColor=swimlane;fontStyle=1;spacingTop=0;rounded=1;arcSize=9;points=[];sketch=1;fontFamily=Permanent Marker;hachureGap=8;fillWeight=1;" parent="_5mSTuPxr-ZiKRkBDSY7-2" vertex="1">
                        <mxGeometry x="20" y="121" width="140" height="80" as="geometry"/>
                    </mxCell>
                </object>
                <object label="不能被个人Repo使用" placeholders="1" id="_5mSTuPxr-ZiKRkBDSY7-5">
                    <mxCell style="whiteSpace=wrap;html=1;strokeWidth=2;fillColor=swimlane;fontStyle=1;spacingTop=0;rounded=1;arcSize=9;points=[];sketch=1;fontFamily=Permanent Marker;hachureGap=8;fillWeight=1;" parent="_5mSTuPxr-ZiKRkBDSY7-2" vertex="1">
                        <mxGeometry x="20" y="221" width="140" height="80" as="geometry"/>
                    </mxCell>
                </object>
                <object label="组织" status="In progress" id="_5mSTuPxr-ZiKRkBDSY7-6">
                    <mxCell style="swimlane;strokeWidth=2;fontFamily=Permanent Marker;html=0;startSize=1;verticalAlign=bottom;spacingBottom=5;points=[];childLayout=stackLayout;stackBorder=20;stackSpacing=20;resizeLast=0;resizeParent=1;horizontalStack=0;collapsible=0;sketch=1;strokeColor=none;fillStyle=solid;fillColor=#006600;" parent="_5mSTuPxr-ZiKRkBDSY7-1" vertex="1">
                        <mxGeometry x="180" y="28" width="180" height="672" as="geometry"/>
                    </mxCell>
                </object>
                <object label="组织内Repo使用" placeholders="1" id="_5mSTuPxr-ZiKRkBDSY7-7">
                    <mxCell style="whiteSpace=wrap;html=1;strokeWidth=2;fillColor=swimlane;fontStyle=1;spacingTop=0;rounded=1;arcSize=9;points=[];sketch=1;fontFamily=Permanent Marker;hachureGap=8;fillWeight=1;" parent="_5mSTuPxr-ZiKRkBDSY7-6" vertex="1">
                        <mxGeometry x="20" y="21" width="140" height="80" as="geometry"/>
                    </mxCell>
                </object>
                <object label="Task 5&lt;br&gt;&lt;span style=&quot;font-weight: normal&quot;&gt;&lt;i&gt;&lt;font style=&quot;font-size: 10px&quot;&gt;%status%&lt;/font&gt;&lt;/i&gt;&lt;/span&gt;" placeholders="1" id="_5mSTuPxr-ZiKRkBDSY7-8">
                    <mxCell style="whiteSpace=wrap;html=1;strokeWidth=2;fillColor=swimlane;fontStyle=1;spacingTop=0;rounded=1;arcSize=9;points=[];sketch=1;fontFamily=Permanent Marker;hachureGap=8;fillWeight=1;" parent="_5mSTuPxr-ZiKRkBDSY7-6" vertex="1">
                        <mxGeometry x="20" y="121" width="140" height="80" as="geometry"/>
                    </mxCell>
                </object>
                <object label="Task 5&lt;br&gt;&lt;span style=&quot;font-weight: normal&quot;&gt;&lt;i&gt;&lt;font style=&quot;font-size: 10px&quot;&gt;%status%&lt;/font&gt;&lt;/i&gt;&lt;/span&gt;" placeholders="1" id="2">
                    <mxCell style="whiteSpace=wrap;html=1;strokeWidth=2;fillColor=swimlane;fontStyle=1;spacingTop=0;rounded=1;arcSize=9;points=[];sketch=1;fontFamily=Permanent Marker;hachureGap=8;fillWeight=1;" vertex="1" parent="_5mSTuPxr-ZiKRkBDSY7-6">
                        <mxGeometry x="20" y="221" width="140" height="80" as="geometry"/>
                    </mxCell>
                </object>
                <object label="组织或个人Repo专用" status="Completed" id="_5mSTuPxr-ZiKRkBDSY7-9">
                    <mxCell style="swimlane;strokeWidth=2;fontFamily=Permanent Marker;html=0;startSize=1;verticalAlign=bottom;spacingBottom=5;points=[];childLayout=stackLayout;stackBorder=20;stackSpacing=20;resizeLast=0;resizeParent=1;horizontalStack=0;collapsible=0;sketch=1;strokeColor=none;fillStyle=solid;fillColor=#1BA1E2;" parent="_5mSTuPxr-ZiKRkBDSY7-1" vertex="1">
                        <mxGeometry x="360" y="28" width="180" height="672" as="geometry"/>
                    </mxCell>
                </object>
                <object label="不能被其它组织Repo使用" placeholders="1" id="_5mSTuPxr-ZiKRkBDSY7-10">
                    <mxCell style="whiteSpace=wrap;html=1;strokeWidth=2;fillColor=swimlane;fontStyle=1;spacingTop=0;rounded=1;arcSize=9;points=[];sketch=1;fontFamily=Permanent Marker;hachureGap=8;fillWeight=1;" parent="_5mSTuPxr-ZiKRkBDSY7-9" vertex="1">
                        <mxGeometry x="20" y="21" width="140" height="80" as="geometry"/>
                    </mxCell>
                </object>
                <object label="不能被其它Repo使用" placeholders="1" id="_5mSTuPxr-ZiKRkBDSY7-11">
                    <mxCell style="whiteSpace=wrap;html=1;strokeWidth=2;fillColor=swimlane;fontStyle=1;spacingTop=0;rounded=1;arcSize=9;points=[];sketch=1;fontFamily=Permanent Marker;hachureGap=8;fillWeight=1;" parent="_5mSTuPxr-ZiKRkBDSY7-9" vertex="1">
                        <mxGeometry x="20" y="121" width="140" height="80" as="geometry"/>
                    </mxCell>
                </object>
                <object label="当前Repo专用" placeholders="1" id="_5mSTuPxr-ZiKRkBDSY7-12">
                    <mxCell style="whiteSpace=wrap;html=1;strokeWidth=2;fillColor=swimlane;fontStyle=1;spacingTop=0;rounded=1;arcSize=9;points=[];sketch=1;fontFamily=Permanent Marker;hachureGap=8;fillWeight=1;" parent="_5mSTuPxr-ZiKRkBDSY7-9" vertex="1">
                        <mxGeometry x="20" y="221" width="140" height="80" as="geometry"/>
                    </mxCell>
                </object>
            </root>
        </mxGraphModel>
    </diagram>
</mxfile>